<svg width="574" height="594" viewBox="0 0 574 594" fill="none" xmlns="http://www.w3.org/2000/svg">
<path d="M286 522.72C406.464 522.72 504.12 421.662 504.12 297C504.12 172.338 406.464 71.28 286 71.28C165.536 71.28 67.8799 172.338 67.8799 297C67.8799 421.662 165.536 522.72 286 522.72Z" stroke="#A78BFA" stroke-width="30"/>
<path d="M287 83.1599V118.8" stroke="#A78BFA" stroke-width="7.68"/>
<path d="M287 475.2V510.84" stroke="#A78BFA" stroke-width="7.68"/>
<path d="M80.3601 297H114.8" stroke="#A78BFA" stroke-width="7.68"/>
<path d="M459.2 297H493.64" stroke="#A78BFA" stroke-width="7.68"/>
<path d="M279.704 139.614V165.68H276.548V142.924H276.395L270.032 147.149V143.942L276.548 139.614H279.704ZM287.201 165.68V163.389L295.804 153.971C296.814 152.868 297.645 151.909 298.299 151.094C298.952 150.271 299.436 149.499 299.75 148.778C300.072 148.048 300.233 147.285 300.233 146.487C300.233 145.571 300.013 144.778 299.572 144.107C299.139 143.437 298.545 142.919 297.79 142.554C297.035 142.19 296.186 142.007 295.244 142.007C294.243 142.007 293.369 142.215 292.622 142.631C291.884 143.038 291.312 143.611 290.904 144.349C290.505 145.087 290.306 145.953 290.306 146.945H287.302C287.302 145.418 287.655 144.078 288.359 142.924C289.063 141.77 290.022 140.87 291.235 140.225C292.457 139.581 293.827 139.258 295.346 139.258C296.873 139.258 298.227 139.581 299.406 140.225C300.585 140.87 301.51 141.74 302.181 142.834C302.851 143.929 303.186 145.147 303.186 146.487C303.186 147.446 303.012 148.384 302.664 149.3C302.325 150.208 301.731 151.222 300.882 152.342C300.042 153.453 298.876 154.811 297.382 156.414L291.528 162.676V162.88H303.644V165.68H287.201Z" fill="#A78BFA"/>
<path d="M407.299 308.597C405.619 308.597 404.121 308.308 402.806 307.731C401.5 307.154 400.46 306.352 399.688 305.326C398.925 304.291 398.509 303.09 398.441 301.724H401.648C401.716 302.564 402.005 303.289 402.514 303.9C403.023 304.503 403.689 304.969 404.512 305.3C405.335 305.631 406.247 305.797 407.248 305.797C408.368 305.797 409.361 305.601 410.226 305.211C411.092 304.821 411.771 304.278 412.263 303.582C412.755 302.886 413.001 302.08 413.001 301.164C413.001 300.205 412.763 299.361 412.288 298.631C411.813 297.893 411.117 297.316 410.201 296.9C409.285 296.484 408.165 296.277 406.841 296.277H404.754V293.477H406.841C407.876 293.477 408.784 293.29 409.565 292.917C410.354 292.543 410.969 292.017 411.41 291.338C411.86 290.66 412.085 289.862 412.085 288.946C412.085 288.063 411.889 287.295 411.499 286.642C411.109 285.989 410.557 285.48 409.845 285.115C409.14 284.75 408.309 284.568 407.35 284.568C406.451 284.568 405.602 284.733 404.805 285.064C404.015 285.386 403.371 285.857 402.87 286.477C402.369 287.088 402.098 287.826 402.055 288.691H399.001C399.052 287.325 399.463 286.129 400.235 285.102C401.008 284.067 402.017 283.261 403.265 282.684C404.52 282.107 405.899 281.818 407.401 281.818C409.013 281.818 410.396 282.145 411.55 282.798C412.704 283.443 413.591 284.296 414.21 285.357C414.829 286.417 415.139 287.563 415.139 288.793C415.139 290.261 414.753 291.512 413.981 292.548C413.217 293.583 412.178 294.3 410.863 294.698V294.902C412.509 295.174 413.794 295.874 414.719 297.002C415.644 298.122 416.106 299.509 416.106 301.164C416.106 302.581 415.72 303.854 414.948 304.982C414.185 306.102 413.141 306.984 411.817 307.629C410.494 308.274 408.988 308.597 407.299 308.597Z" fill="#A78BFA"/>
<path d="M286.834 445.216C285.765 445.199 284.696 444.996 283.627 444.605C282.557 444.215 281.582 443.557 280.699 442.633C279.817 441.699 279.108 440.439 278.574 438.853C278.039 437.257 277.772 435.255 277.772 432.845C277.772 430.537 277.988 428.493 278.421 426.711C278.854 424.92 279.482 423.414 280.305 422.193C281.128 420.962 282.12 420.029 283.283 419.393C284.454 418.756 285.773 418.438 287.241 418.438C288.7 418.438 289.999 418.731 291.136 419.316C292.281 419.893 293.214 420.699 293.936 421.734C294.657 422.77 295.123 423.962 295.336 425.311H292.23C291.942 424.14 291.382 423.168 290.55 422.396C289.719 421.624 288.616 421.238 287.241 421.238C285.222 421.238 283.631 422.116 282.468 423.873C281.314 425.629 280.733 428.094 280.725 431.267H280.928C281.403 430.546 281.968 429.931 282.621 429.422C283.283 428.904 284.013 428.505 284.81 428.225C285.608 427.945 286.452 427.805 287.343 427.805C288.836 427.805 290.202 428.179 291.441 428.925C292.68 429.663 293.673 430.686 294.419 431.993C295.166 433.291 295.539 434.78 295.539 436.46C295.539 438.072 295.179 439.548 294.457 440.889C293.736 442.221 292.722 443.282 291.416 444.071C290.117 444.851 288.59 445.233 286.834 445.216ZM286.834 442.416C287.903 442.416 288.862 442.149 289.71 441.614C290.567 441.08 291.242 440.363 291.734 439.463C292.234 438.564 292.485 437.563 292.485 436.46C292.485 435.382 292.243 434.402 291.759 433.52C291.284 432.629 290.627 431.92 289.787 431.394C288.955 430.868 288.005 430.605 286.936 430.605C286.13 430.605 285.379 430.767 284.683 431.089C283.987 431.403 283.376 431.836 282.85 432.387C282.333 432.939 281.925 433.571 281.628 434.283C281.331 434.988 281.183 435.73 281.183 436.511C281.183 437.546 281.425 438.513 281.908 439.413C282.4 440.312 283.071 441.037 283.919 441.589C284.776 442.14 285.748 442.416 286.834 442.416Z" fill="#A78BFA"/>
<path d="M165.938 281.818C167.007 281.827 168.076 282.031 169.145 282.429C170.214 282.828 171.19 283.49 172.072 284.415C172.955 285.331 173.663 286.583 174.198 288.169C174.732 289.756 174.999 291.746 174.999 294.138C174.999 296.455 174.779 298.512 174.338 300.311C173.905 302.101 173.277 303.612 172.454 304.842C171.639 306.072 170.647 307.006 169.476 307.642C168.313 308.278 166.998 308.597 165.53 308.597C164.071 308.597 162.769 308.308 161.623 307.731C160.486 307.146 159.553 306.335 158.823 305.3C158.102 304.257 157.639 303.048 157.436 301.673H160.541C160.821 302.869 161.377 303.858 162.209 304.638C163.049 305.411 164.156 305.797 165.53 305.797C167.541 305.797 169.128 304.918 170.29 303.162C171.461 301.406 172.047 298.924 172.047 295.717H171.843C171.368 296.429 170.804 297.044 170.15 297.562C169.497 298.08 168.772 298.478 167.974 298.758C167.176 299.038 166.328 299.178 165.429 299.178C163.935 299.178 162.565 298.809 161.318 298.071C160.079 297.324 159.086 296.302 158.339 295.004C157.601 293.697 157.232 292.204 157.232 290.524C157.232 288.929 157.589 287.469 158.301 286.146C159.022 284.814 160.032 283.753 161.33 282.964C162.637 282.175 164.173 281.793 165.938 281.818ZM165.938 284.618C164.869 284.618 163.906 284.886 163.049 285.42C162.2 285.946 161.526 286.659 161.025 287.558C160.533 288.449 160.287 289.438 160.287 290.524C160.287 291.61 160.524 292.598 160.999 293.489C161.483 294.372 162.141 295.076 162.972 295.602C163.812 296.12 164.767 296.378 165.836 296.378C166.642 296.378 167.393 296.221 168.089 295.908C168.784 295.585 169.391 295.148 169.909 294.597C170.435 294.037 170.846 293.404 171.143 292.7C171.44 291.988 171.589 291.245 171.589 290.473C171.589 289.455 171.342 288.5 170.85 287.609C170.367 286.718 169.696 285.997 168.839 285.446C167.991 284.894 167.024 284.618 165.938 284.618Z" fill="#A78BFA"/>
<path d="M332.92 225.72C318.762 217.63 302.574 214.149 286.473 215.732C270.372 217.316 255.107 223.89 242.675 234.596C230.243 245.301 221.221 259.64 216.79 275.736C212.359 291.833 212.725 308.939 217.84 324.817C222.954 340.695 232.579 354.606 245.457 364.733C258.335 374.859 273.865 380.728 290.018 381.573C306.171 382.418 322.194 378.2 335.993 369.47C349.792 360.739 360.724 347.903 367.36 332.64C356.592 330.277 346.609 325.042 338.399 317.454C330.19 309.867 324.04 300.19 320.559 289.384C317.078 278.578 316.388 267.018 318.556 255.85C320.724 244.683 325.676 234.296 332.92 225.72Z" fill="#A78BFA"/>
<path d="M287 297L241.08 344.52" stroke="white" stroke-width="10.24" stroke-linecap="round"/>
<path d="M287 311.85C294.925 311.85 301.35 305.201 301.35 297C301.35 288.798 294.925 282.15 287 282.15C279.075 282.15 272.65 288.798 272.65 297C272.65 305.201 279.075 311.85 287 311.85Z" fill="white"/>
<path d="M390.32 207.9C393.49 207.9 396.06 205.241 396.06 201.96C396.06 198.679 393.49 196.02 390.32 196.02C387.15 196.02 384.58 198.679 384.58 201.96C384.58 205.241 387.15 207.9 390.32 207.9Z" fill="white"/>
</svg>
